{"asset":{"generator":"glTF-Transform v2.4.6","version":"2.0"},"accessors":[{"type":"SCALAR","componentType":5123,"count":282,"bufferView":0,"byteOffset":0},{"type":"SCALAR","componentType":5123,"count":66,"bufferView":0,"byteOffset":564},{"type":"VEC3","componentType":5126,"count":128,"max":[0.4195506274700165,0.059616293758153915,0.3659064471721649],"min":[-0.46509644389152527,-0.019872251898050308,-0.3659064471721649],"bufferView":1,"byteOffset":0},{"type":"VEC2","componentType":5126,"count":128,"bufferView":1,"byteOffset":12},{"type":"VEC3","componentType":5126,"count":128,"bufferView":1,"byteOffset":20},{"type":"VEC3","componentType":5126,"count":26,"max":[0.33629828691482544,0.059616293758153915,0.2778732478618622],"min":[-0.3831925094127655,-0.019872251898050308,-0.2778732478618622],"bufferView":2,"byteOffset":0},{"type":"VEC2","componentType":5126,"count":26,"bufferView":2,"byteOffset":12},{"type":"VEC3","componentType":5126,"count":26,"bufferView":2,"byteOffset":20}],"bufferViews":[{"buffer":0,"byteOffset":0,"byteLength":696,"target":34963},{"buffer":0,"byteOffset":696,"byteLength":4096,"byteStride":32,"target":34962},{"buffer":0,"byteOffset":4792,"byteLength":832,"byteStride":32,"target":34962}],"buffers":[{"uri":"Bread.bin","byteLength":5624}],"materials":[{"name":"brown","pbrMetallicRoughness":{"baseColorFactor":[1,0.45,0.2,1],"metallicFactor":0},"extensions":{"KHR_materials_unlit":{}}},{"name":"brownLight","pbrMetallicRoughness":{"baseColorFactor":[0.98,0.7,0.6,1],"metallicFactor":0},"extensions":{"KHR_materials_unlit":{}}}],"meshes":[{"name":"bread_1.001","primitives":[{"attributes":{"POSITION":2,"TEXCOORD_0":3,"NORMAL":4},"mode":4,"material":0,"indices":0},{"attributes":{"POSITION":5,"TEXCOORD_0":6,"NORMAL":7},"mode":4,"material":1,"indices":1}]}],"nodes":[{"name":"bread","mesh":0}],"scenes":[{"name":"Scene","nodes":[0]}],"scene":0,"extensionsUsed":["KHR_materials_unlit"]}