{
	"asset": {
		"version": "2.0"
	},
    "scene" : 0,
    "scenes" : [
        {
            "name" : "Scene",
            "nodes" : [
                0
            ]
        }
    ],
    "nodes" : [
        {
            "mesh" : 0,
            "name" : "bread"
        }
    ],
    "materials" : [
        {
            "name" : "brown",
            "pbrMetallicRoughness" : {
                "baseColorFactor" : [
                    1,
                    0.45,
                    0.2,
                    1
                ],
                "metallicFactor" : 0
            },
			"extensions": {
				"KHR_materials_unlit": {}
			}
        },
        {
            "name" : "brownLight",
            "pbrMetallicRoughness" : {
                "baseColorFactor" : [
                    0.98,
                    0.7,
                    0.6,
                    1
                ],
                "metallicFactor" : 0
            },
			"extensions": {
				"KHR_materials_unlit": {}
			}
        }
    ],
    "extensionsUsed": [
		"KHR_materials_unlit"
	],
    "meshes" : [
        {
            "name" : "bread_1.001",
            "primitives" : [
                {
                    "attributes" : {
                        "POSITION" : 0,
                        "TEXCOORD_0" : 1,
                        "NORMAL" : 2
                    },
                    "indices" : 3,
                    "material" : 0
                },
                {
                    "attributes" : {
                        "POSITION" : 4,
                        "TEXCOORD_0" : 5,
                        "NORMAL" : 6
                    },
                    "indices" : 7,
                    "material" : 1
                }
            ]
        }
    ],
    "accessors" : [
        {
            "bufferView" : 0,
            "componentType" : 5126,
            "count" : 234,
            "max" : [
                0.4195506274700165,
                0.059616293758153915,
                0.3659064471721649
            ],
            "min" : [
                -0.46509644389152527,
                -0.019872251898050308,
                -0.3659064471721649
            ],
            "type" : "VEC3"
        },
        {
            "bufferView" : 1,
            "componentType" : 5126,
            "count" : 234,
            "type" : "VEC2"
        },
        {
            "bufferView" : 2,
            "componentType" : 5126,
            "count" : 234,
            "type" : "VEC3"
        },
        {
            "bufferView" : 3,
            "componentType" : 5123,
            "count" : 282,
            "type" : "SCALAR"
        },
        {
            "bufferView" : 4,
            "componentType" : 5126,
            "count" : 51,
            "max" : [
                0.33629828691482544,
                0.059616293758153915,
                0.2778732478618622
            ],
            "min" : [
                -0.3831925094127655,
                -0.019872251898050308,
                -0.2778732478618622
            ],
            "type" : "VEC3"
        },
        {
            "bufferView" : 5,
            "componentType" : 5126,
            "count" : 51,
            "type" : "VEC2"
        },
        {
            "bufferView" : 6,
            "componentType" : 5126,
            "count" : 51,
            "type" : "VEC3"
        },
        {
            "bufferView" : 7,
            "componentType" : 5123,
            "count" : 66,
            "type" : "SCALAR"
        }
    ],
    "bufferViews" : [
        {
            "buffer" : 0,
            "byteLength" : 2808,
            "byteOffset" : 0,
            "target" : 34962
        },
        {
            "buffer" : 0,
            "byteLength" : 1872,
            "byteOffset" : 2808,
            "target" : 34962
        },
        {
            "buffer" : 0,
            "byteLength" : 2808,
            "byteOffset" : 4680,
            "target" : 34962
        },
        {
            "buffer" : 0,
            "byteLength" : 564,
            "byteOffset" : 7488,
            "target" : 34963
        },
        {
            "buffer" : 0,
            "byteLength" : 612,
            "byteOffset" : 8052,
            "target" : 34962
        },
        {
            "buffer" : 0,
            "byteLength" : 408,
            "byteOffset" : 8664,
            "target" : 34962
        },
        {
            "buffer" : 0,
            "byteLength" : 612,
            "byteOffset" : 9072,
            "target" : 34962
        },
        {
            "buffer" : 0,
            "byteLength" : 132,
            "byteOffset" : 9684,
            "target" : 34963
        }
    ],
    "buffers" : [
        {
            "byteLength" : 9816,
            "uri" : "Bread.bin"
        }
    ]
}
