{"asset":{"generator":"glTF-Transform v2.4.6","version":"2.0"},"accessors":[{"type":"SCALAR","componentType":5123,"count":684,"bufferView":0,"byteOffset":0},{"type":"SCALAR","componentType":5123,"count":672,"bufferView":0,"byteOffset":1368},{"type":"SCALAR","componentType":5123,"count":1032,"bufferView":0,"byteOffset":2712},{"type":"SCALAR","componentType":5123,"count":840,"bufferView":0,"byteOffset":4776},{"type":"VEC3","componentType":5126,"count":228,"max":[0.42985600233078003,0.8707360029220581,-2.0352790355682373],"min":[-0.43512800335884094,0.16600799560546875,-3.419250011444092],"bufferView":1,"byteOffset":0},{"type":"VEC2","componentType":5126,"count":228,"bufferView":1,"byteOffset":12},{"type":"VEC3","componentType":5126,"count":228,"bufferView":1,"byteOffset":20},{"type":"VEC3","componentType":5126,"count":218,"max":[0.20648500323295593,2.6778829097747803,0.08214300125837326],"min":[-0.20648500323295593,2.5593268871307373,-0.03744800016283989],"bufferView":2,"byteOffset":0},{"type":"VEC2","componentType":5126,"count":218,"bufferView":2,"byteOffset":12},{"type":"VEC3","componentType":5126,"count":218,"bufferView":2,"byteOffset":20},{"type":"VEC3","componentType":5126,"count":533,"max":[0.885977029800415,2.5731780529022217,0.7788029909133911],"min":[-0.885977029800415,-0.7699009776115417,-1.7541569471359253],"bufferView":3,"byteOffset":0},{"type":"VEC2","componentType":5126,"count":533,"bufferView":3,"byteOffset":12},{"type":"VEC3","componentType":5126,"count":533,"bufferView":3,"byteOffset":20},{"type":"VEC3","componentType":5126,"count":264,"max":[0.7828419804573059,2.8001649379730225,0.4083319902420044],"min":[-0.7828419804573059,-0.03373900055885315,-2.7384610176086426],"bufferView":4,"byteOffset":0},{"type":"VEC2","componentType":5126,"count":264,"bufferView":4,"byteOffset":12},{"type":"VEC3","componentType":5126,"count":264,"bufferView":4,"byteOffset":20}],"bufferViews":[{"buffer":0,"byteOffset":0,"byteLength":6456,"target":34963},{"buffer":0,"byteOffset":6456,"byteLength":7296,"byteStride":32,"target":34962},{"buffer":0,"byteOffset":13752,"byteLength":6976,"byteStride":32,"target":34962},{"buffer":0,"byteOffset":20728,"byteLength":17056,"byteStride":32,"target":34962},{"buffer":0,"byteOffset":37784,"byteLength":8448,"byteStride":32,"target":34962}],"buffers":[{"uri":"Duck.bin","byteLength":46232}],"materials":[{"name":"tail","pbrMetallicRoughness":{"baseColorFactor":[0.949999988079071,0.949999988079071,0.949999988079071,1],"roughnessFactor":0.9,"metallicFactor":0},"extensions":{"KHR_materials_unlit":{}}},{"name":"eyes","pbrMetallicRoughness":{"baseColorFactor":[0.029999999329447746,0.029999999329447746,0.029999999329447746,1],"roughnessFactor":0.9,"metallicFactor":0},"extensions":{"KHR_materials_unlit":{}}},{"name":"beak","pbrMetallicRoughness":{"baseColorFactor":[1,0.699999988079071,0.4000000059604645,1],"roughnessFactor":0.9,"metallicFactor":0},"extensions":{"KHR_materials_unlit":{}}},{"name":"body","pbrMetallicRoughness":{"roughnessFactor":0.9,"metallicFactor":0},"extensions":{"KHR_materials_unlit":{}}}],"meshes":[{"name":"Node-Mesh","primitives":[{"attributes":{"POSITION":4,"TEXCOORD_0":5,"NORMAL":6},"mode":4,"material":0,"indices":0},{"attributes":{"POSITION":7,"TEXCOORD_0":8,"NORMAL":9},"mode":4,"material":1,"indices":1},{"attributes":{"POSITION":10,"TEXCOORD_0":11,"NORMAL":12},"mode":4,"material":2,"indices":2},{"attributes":{"POSITION":13,"TEXCOORD_0":14,"NORMAL":15},"mode":4,"material":3,"indices":3}]}],"nodes":[{"name":"Node","translation":[0,-0.28406715393066406,1.3935891389846802],"mesh":0}],"scenes":[{"name":"Scene","nodes":[0]}],"scene":0,"extensionsUsed":["KHR_materials_unlit"]}