{
	"asset": {
		"version": "2.0"
	},
	"accessors":[
		{
			"name":"Node-Mesh_0_positions",
			"type":"VEC3",
			"componentType":5126,
			"count":162,
			"max":[
				0.42985600233078003,
				0.8707360029220581,
				-2.0352790355682373
			],
			"min":[
				-0.43512800335884094,
				0.16600799560546875,
				-3.419250011444092
			],
			"bufferView":0,
			"byteOffset":0
		},
		{
			"name":"Node-Mesh_0_texcoords",
			"type":"VEC2",
			"componentType":5126,
			"count":162,
			"bufferView":0,
			"byteOffset":12
		},
		{
			"name":"Node-Mesh_1_positions",
			"type":"VEC3",
			"componentType":5126,
			"count":158,
			"max":[
				0.20648500323295593,
				2.6778829097747803,
				0.08214300125837326
			],
			"min":[
				-0.20648500323295593,
				2.5593268871307373,
				-0.03744800016283989
			],
			"bufferView":1,
			"byteOffset":0
		},
		{
			"name":"Node-Mesh_1_texcoords",
			"type":"VEC2",
			"componentType":5126,
			"count":158,
			"bufferView":1,
			"byteOffset":12
		},
		{
			"name":"Node-Mesh_2_positions",
			"type":"VEC3",
			"componentType":5126,
			"count":336,
			"max":[
				0.885977029800415,
				2.5731780529022217,
				0.7788029909133911
			],
			"min":[
				-0.885977029800415,
				-0.7699009776115417,
				-1.7541569471359253
			],
			"bufferView":2,
			"byteOffset":0
		},
		{
			"name":"Node-Mesh_2_texcoords",
			"type":"VEC2",
			"componentType":5126,
			"count":336,
			"bufferView":2,
			"byteOffset":12
		},
		{
			"name":"Node-Mesh_3_positions",
			"type":"VEC3",
			"componentType":5126,
			"count":188,
			"max":[
				0.7828419804573059,
				2.8001649379730225,
				0.4083319902420044
			],
			"min":[
				-0.7828419804573059,
				-0.03373900055885315,
				-2.7384610176086426
			],
			"bufferView":3,
			"byteOffset":0
		},
		{
			"name":"Node-Mesh_3_texcoords",
			"type":"VEC2",
			"componentType":5126,
			"count":188,
			"bufferView":3,
			"byteOffset":12
		},
		{
			"name":"Node-Mesh_0_indices",
			"type":"SCALAR",
			"componentType":5123,
			"count":684,
			"bufferView":4,
			"byteOffset":0
		},
		{
			"name":"Node-Mesh_1_indices",
			"type":"SCALAR",
			"componentType":5123,
			"count":672,
			"bufferView":4,
			"byteOffset":1368
		},
		{
			"name":"Node-Mesh_2_indices",
			"type":"SCALAR",
			"componentType":5123,
			"count":1032,
			"bufferView":4,
			"byteOffset":2712
		},
		{
			"name":"Node-Mesh_3_indices",
			"type":"SCALAR",
			"componentType":5123,
			"count":840,
			"bufferView":4,
			"byteOffset":4776
		}
	],
	"bufferViews":[
		{
			"buffer":0,
			"byteOffset":0,
			"byteLength":3240,
			"byteStride":20,
			"target":34962
		},
		{
			"buffer":0,
			"byteOffset":3240,
			"byteLength":3160,
			"byteStride":20,
			"target":34962
		},
		{
			"buffer":0,
			"byteOffset":6400,
			"byteLength":6720,
			"byteStride":20,
			"target":34962
		},
		{
			"buffer":0,
			"byteOffset":13120,
			"byteLength":3760,
			"byteStride":20,
			"target":34962
		},
		{
			"buffer":0,
			"byteOffset":16880,
			"byteLength":6456,
			"target":34963
		}
	],
	"buffers":[
		{
			"name":"duck",
			"uri":"Duck.bin",
			"byteLength":23336
		}
	],
	"materials":[
		{
			"name":"tail",
			"pbrMetallicRoughness":{
				"baseColorFactor":[
					0.95,
					0.95,
					0.95,
					1
				],
				"metallicFactor":0
			},
			"extensions": {
				"KHR_materials_unlit": {}
			}
		},
		{
			"name":"eyes",
			"pbrMetallicRoughness":{
				"baseColorFactor":[
					0.03,
					0.03,
					0.03,
					1
				],
				"metallicFactor":0
			},
			"extensions": {
				"KHR_materials_unlit": {}
			}
		},
		{
			"name":"beak",
			"pbrMetallicRoughness":{
				"baseColorFactor":[
					1,
					0.7,
					0.4,
					1
				],
				"metallicFactor":0
			},
			"extensions": {
				"KHR_materials_unlit": {}
			}
		},
		{
			"name":"body",
			"pbrMetallicRoughness":{
				"baseColorFactor":[
					1,
					1,
					1,
					1
				],
				"metallicFactor":0
			},
			"extensions": {
				"KHR_materials_unlit": {}
			}
		}
	],
	"meshes":[
		{
			"name":"Node-Mesh",
			"primitives":[
				{
					"attributes":{
						"POSITION":0,
						"TEXCOORD_0":1
					},
					"mode":4,
					"material":0,
					"indices":8
				},
				{
					"attributes":{
						"POSITION":2,
						"TEXCOORD_0":3
					},
					"mode":4,
					"material":1,
					"indices":9
				},
				{
					"attributes":{
						"POSITION":4,
						"TEXCOORD_0":5
					},
					"mode":4,
					"material":2,
					"indices":10
				},
				{
					"attributes":{
						"POSITION":6,
						"TEXCOORD_0":7
					},
					"mode":4,
					"material":3,
					"indices":11
				}
			]
		}
	],
	"extensionsUsed": [
		"KHR_materials_unlit"
	],
	"nodes":[
		{
			"name":"Node",
			"mesh":0
		}
	],
	"scenes":[
		{
			"nodes":[
				0
			]
		}
	],
	"scene":0
}